<?xml version="1.0" standalone="no"?>
<!DOCTYPE svg PUBLIC "-//W3C//DTD SVG 20010904//EN"
 "http://www.w3.org/TR/2001/REC-SVG-20010904/DTD/svg10.dtd">
<svg version="1.0" xmlns="http://www.w3.org/2000/svg"
 width="500.000000pt" height="372.000000pt" viewBox="0 0 500.000000 372.000000"
 preserveAspectRatio="xMidYMid meet">
<metadata>
Created by potrace 1.16, written by Peter Selinger 2001-2019
</metadata>
<g transform="translate(0.000000,372.000000) scale(0.100000,-0.100000)"
fill="#000000" stroke="none">
<path d="M1416 3165 c-92 -33 -162 -125 -152 -200 3 -22 8 -52 12 -67 9 -38
-29 -72 -104 -93 -102 -29 -172 -112 -172 -203 0 -50 9 -70 57 -130 26 -32 33
-49 29 -66 -7 -28 -69 -86 -94 -87 -22 -1 76 -37 104 -38 20 -1 21 -4 13 -48
-10 -50 -10 -50 35 -78 14 -9 13 -20 -12 -105 l-28 -95 -49 -6 c-64 -7 -85
-17 -85 -38 0 -42 63 -55 127 -24 29 13 43 34 91 129 49 98 59 113 84 116 17
3 28 0 28 -7 0 -41 -28 -147 -67 -252 -25 -67 -43 -129 -40 -136 8 -22 91 -46
197 -57 125 -12 135 -6 143 87 11 107 8 470 -4 584 -9 89 -25 156 -53 220 -6
14 2 12 41 -7 63 -31 79 -30 91 4 l10 27 17 -39 c41 -96 47 -165 43 -519 -3
-385 -8 -365 80 -352 85 12 82 7 61 82 -30 109 -43 254 -34 405 6 111 10 136
21 131 8 -3 14 -13 14 -22 0 -10 11 -28 24 -40 28 -27 72 -26 70 2 -1 10 5 17
16 17 9 0 25 9 35 20 16 18 17 33 11 165 l-7 145 28 0 c27 1 63 20 63 34 0 3
-31 6 -69 6 l-68 0 -7 -46 c-3 -26 -6 -63 -6 -83 0 -20 -3 -46 -6 -59 l-7 -23
-22 21 c-12 11 -27 20 -33 18 -5 -2 -33 27 -60 63 -45 59 -56 67 -107 82 -31
9 -62 14 -70 11 -23 -9 -55 33 -55 71 0 30 4 35 23 35 12 0 31 7 42 16 19 14
20 13 25 -13 5 -26 7 -23 23 26 39 120 34 227 -11 277 -15 16 -35 43 -46 58
-10 16 -31 33 -47 39 -16 6 -29 15 -29 20 0 6 -62 38 -72 37 -2 -1 -20 -7 -42
-15z m203 -351 c6 -6 -40 -5 -66 2 -13 4 -23 10 -23 14 0 8 80 -6 89 -16z
m-163 -170 c-8 -29 -27 -31 -50 -5 -16 18 -15 20 16 46 l33 28 3 -22 c2 -13 1
-34 -2 -47z"/>
<path d="M2783 3020 c-21 -13 -35 -31 -42 -57 -8 -29 -142 -2473 -141 -2580 0
-13 13 -37 29 -55 l29 -33 548 3 c592 3 573 1 609 56 14 20 27 228 80 1248 36
673 65 1257 66 1298 2 82 -9 111 -48 129 -16 7 -200 11 -561 11 -515 0 -538
-1 -569 -20z m720 -529 c127 -50 231 -158 278 -290 33 -92 33 -228 0 -324 -30
-89 -108 -205 -174 -258 -65 -52 -172 -105 -245 -120 -75 -15 -204 -7 -274 19
-77 27 -171 95 -213 153 -221 299 -61 723 315 835 71 21 241 13 313 -15z
m-201 -1248 c9 -10 30 -46 47 -81 l32 -63 -53 -77 c-42 -61 -59 -78 -81 -80
-37 -4 -57 14 -92 88 -16 33 -35 60 -42 60 -7 0 -39 -17 -70 -37 -48 -32 -64
-38 -109 -37 -45 0 -59 5 -100 37 -26 20 -51 37 -56 37 -4 0 -8 5 -8 10 0 6 4
10 10 10 5 0 31 15 57 34 81 57 147 56 222 -3 21 -17 46 -31 55 -31 9 0 34 29
57 65 22 36 48 69 57 75 26 15 57 12 74 -7z m309 -63 c19 -5 48 -23 64 -40 16
-16 35 -30 42 -30 19 0 16 -14 -6 -25 -10 -6 -41 -23 -67 -40 -70 -43 -114
-41 -192 10 -59 38 -74 55 -51 55 6 0 26 12 45 26 31 24 95 53 119 54 6 0 26
-5 46 -10z m-868 -60 c16 -19 16 -21 0 -40 -21 -24 -31 -25 -54 -4 -17 15 -17
18 -2 40 19 29 33 30 56 4z m1075 -1 c11 -18 11 -24 -4 -40 -22 -25 -41 -24
-54 2 -9 16 -8 25 6 40 22 25 36 24 52 -2z"/>
<path d="M1935 2661 l-40 -19 101 -1 c81 -1 111 3 145 19 l44 20 -105 0 c-82
-1 -114 -5 -145 -19z"/>
<path d="M1739 1246 c-2 -2 -40 -9 -83 -15 -44 -6 -81 -13 -84 -15 -2 -3 18
-60 46 -128 39 -97 51 -140 56 -206 11 -127 69 -348 142 -544 20 -54 23 -70
13 -85 -9 -15 -8 -36 2 -94 l13 -74 6 44 5 44 17 -36 c20 -41 44 -51 104 -42
55 8 63 20 25 40 -22 11 -41 36 -66 89 -35 74 -36 74 -70 423 -19 191 -45 405
-57 476 -20 117 -23 127 -43 127 -12 0 -24 -2 -26 -4z"/>
<path d="M1260 1130 l0 -110 -44 -88 c-52 -104 -113 -290 -151 -462 -19 -82
-34 -131 -47 -142 -21 -19 -83 -146 -75 -154 3 -3 15 11 26 33 l20 38 1 -46
c0 -52 14 -69 74 -94 47 -20 55 -13 32 26 -18 30 -18 61 0 168 3 14 77 172
165 351 136 275 166 343 193 445 l32 120 -100 12 c-56 6 -107 12 -113 12 -10
1 -13 -27 -13 -109z"/>
</g>
</svg>
