<svg xmlns="http://www.w3.org/2000/svg" xmlns:xlink="http://www.w3.org/1999/xlink" version="1.1" id="Layer_1" x="0px" y="0px" viewBox="0 0 1080 1080" enable-background="new 0 0 1080 1080" xml:space="preserve">
<g opacity="0.1">
	<g>
		<rect x="347.241" y="474.521" fill="#2A94F4" width="6.755" height="90.111"/>
	</g>
	<g>
		<rect x="359.178" y="438.432" fill="#2A94F4" width="6.752" height="162.291"/>
	</g>
	<g>
		<rect x="335.773" y="485.187" fill="#2A94F4" width="6.752" height="68.782"/>
	</g>
	<g>
		<rect x="323.374" y="499.007" fill="#2A94F4" width="6.749" height="41.142"/>
	</g>
	<g>
		<rect x="371.192" y="462.837" fill="#2A94F4" width="6.755" height="113.482"/>
	</g>
	<g>
		<rect x="382.738" y="485.187" fill="#2A94F4" width="6.755" height="68.782"/>
	</g>
	<g>
		<rect x="393.818" y="499.007" fill="#2A94F4" width="6.749" height="41.142"/>
	</g>
	<g>
		<rect x="403.587" y="514.841" fill="#2A94F4" width="6.749" height="9.473"/>
	</g>
	<g>
		<rect x="437.465" y="438.432" fill="#2A94F4" width="6.752" height="162.291"/>
	</g>
	<g>
		<rect x="449.412" y="423.301" fill="#2A94F4" width="6.755" height="192.557"/>
	</g>
	<g>
		<rect x="426.01" y="475.426" fill="#2A94F4" width="6.748" height="88.304"/>
	</g>
	<g>
		<rect x="413.605" y="499.729" fill="#2A94F4" width="6.755" height="39.698"/>
	</g>
	<g>
		<rect x="461.429" y="438.432" fill="#2A94F4" width="6.755" height="162.291"/>
	</g>
	<g>
		<rect x="472.975" y="475.426" fill="#2A94F4" width="6.749" height="88.304"/>
	</g>
	<g>
		<rect x="484.049" y="499.729" fill="#2A94F4" width="6.755" height="39.698"/>
	</g>
	<g>
		<rect x="493.815" y="510.12" fill="#2A94F4" width="6.752" height="18.916"/>
	</g>
	<g>
		<rect x="527.705" y="486.808" fill="#2A94F4" width="6.755" height="65.538"/>
	</g>
	<g>
		<rect x="539.642" y="478.553" fill="#2A94F4" width="6.755" height="82.049"/>
	</g>
	<g>
		<rect x="516.237" y="494.075" fill="#2A94F4" width="6.752" height="51"/>
	</g>
	<g>
		<rect x="503.839" y="504.696" fill="#2A94F4" width="6.748" height="29.759"/>
	</g>
	<g>
		<rect x="551.656" y="486.808" fill="#2A94F4" width="6.755" height="65.538"/>
	</g>
	<g>
		<rect x="563.202" y="494.075" fill="#2A94F4" width="6.752" height="51"/>
	</g>
	<g>
		<rect x="574.283" y="504.696" fill="#2A94F4" width="6.752" height="29.759"/>
	</g>
	<g>
		<rect x="584.048" y="510.12" fill="#2A94F4" width="6.755" height="18.916"/>
	</g>
	<g>
		<rect x="617.933" y="448.395" fill="#2A94F4" width="6.755" height="142.369"/>
	</g>
	<g>
		<rect x="629.879" y="427.033" fill="#2A94F4" width="6.752" height="185.084"/>
	</g>
	<g>
		<rect x="606.471" y="466.279" fill="#2A94F4" width="6.755" height="106.598"/>
	</g>
	<g>
		<rect x="594.076" y="488.535" fill="#2A94F4" width="6.755" height="62.08"/>
	</g>
	<g>
		<rect x="641.89" y="462.837" fill="#2A94F4" width="6.755" height="113.482"/>
	</g>
	<g>
		<rect x="653.429" y="484.985" fill="#2A94F4" width="6.755" height="69.186"/>
	</g>
	<g>
		<rect x="664.519" y="502.783" fill="#2A94F4" width="6.749" height="33.589"/>
	</g>
	<g>
		<rect x="674.276" y="510.12" fill="#2A94F4" width="6.755" height="18.916"/>
	</g>
	<g>
		<rect x="708.17" y="427.033" fill="#2A94F4" width="6.755" height="185.084"/>
	</g>
	<g>
		<rect x="720.106" y="402.952" fill="#2A94F4" width="6.755" height="233.252"/>
	</g>
	<g>
		<rect x="696.695" y="470.936" fill="#2A94F4" width="6.755" height="97.286"/>
	</g>
	<g>
		<rect x="684.303" y="500.052" fill="#2A94F4" width="6.755" height="39.052"/>
	</g>
	<g>
		<rect x="732.127" y="427.033" fill="#2A94F4" width="6.752" height="185.084"/>
	</g>
	<g>
		<rect x="743.666" y="470.936" fill="#2A94F4" width="6.755" height="97.286"/>
	</g>
	<g>
		<rect x="754.757" y="500.052" fill="#2A94F4" width="6.749" height="39.052"/>
	</g>
	<g>
		<rect x="764.509" y="510.12" fill="#2A94F4" width="6.755" height="18.916"/>
	</g>
</g>
<g>
	<g>
		<path fill="#2A94F4" d="M733.545,656.769c-2.09-1.011-4.315-2.617-5.215-5.981c-0.964-3.616,0.047-7.668,1.048-11.328    c1.314-4.799,2.287-8.98,0.882-13.562c-1.012-3.303-2.674-6.222-2.843-10.177c-0.197-4.602,1.773-8.881,3.986-11.884    c2.583-3.497,5.766-5.839,7.935-10.137c1.312-2.602,1.937-5.426,1.797-8.569c-0.104-2.274-0.48-4.444-0.567-6.721    c-0.284-7.345,3.444-13.584,7.675-13.96c3.902-1.496,7.926,1.369,9.145,7.846c0.975,5.181-0.66,10.285-1.474,15.52    c-0.882,5.662,0.371,9.515,2.234,13.646c1.269,2.809,2.692,5.724,2.967,9.414c0.279,3.709-0.818,7.27-2.075,10.535    c-1.533,3.992-3.683,8.32-3.266,13.021c0.226,2.519,1.057,4.686,1.215,7.253c0.105,1.747-0.065,3.554-0.435,5.288    c-1.992,9.342-8.415,12.955-13.709,12.599C739.678,659.363,736.496,658.199,733.545,656.769z"/>
	</g>
	<path fill="#FAFAFA" d="M756.623,613.916c-3.494,3.363-6.987,6.726-10.481,10.088c1.237-8.288,2.122-16.627,2.658-24.992   c0.147,0.05,0.316,0.031,0.452-0.116c1.555-1.677,3.11-3.354,4.664-5.031c0.39-0.42-0.277-1.007-0.666-0.588   c-1.463,1.578-2.926,3.156-4.388,4.734c0.362-5.954,0.538-11.921,0.54-17.891c0.001-0.001,0.001-0.001,0.002-0.001   c1.551-1.87,3.102-3.739,4.653-5.609c0.365-0.44-0.3-1.029-0.666-0.588c-1.329,1.602-2.659,3.204-3.988,4.806   c-0.008-1.954-0.032-3.908-0.08-5.862c-0.014-0.571-0.9-0.505-0.886,0.066c0.119,4.868,0.111,9.736-0.012,14.598   c-1.359-1.935-2.557-3.967-3.563-6.113c-0.24-0.512-1.082-0.227-0.839,0.291c1.191,2.542,2.615,4.945,4.287,7.201   c0.022,0.029,0.049,0.044,0.073,0.066c-0.248,8.184-0.83,16.353-1.752,24.482c-2.552-3.802-4.714-7.817-6.44-12.067   c-0.214-0.528-1.055-0.24-0.839,0.291c1.887,4.646,4.261,9.034,7.122,13.154c-0.952,8.057-2.23,16.075-3.837,24.03   c-1.794-3.372-3.588-6.744-5.382-10.115c-0.269-0.505-1.004-0.006-0.738,0.495c1.948,3.662,3.896,7.323,5.844,10.985   c-1.648,7.969-3.615,15.875-5.916,23.693c-0.161,0.548,0.711,0.716,0.871,0.172c1.727-5.866,3.263-11.782,4.622-17.736   c0.073-0.016,0.146-0.045,0.212-0.104c3.29-2.92,6.58-5.841,9.87-8.761c0.427-0.379-0.243-0.963-0.666-0.588   c-3.038,2.697-6.076,5.394-9.114,8.091c1.447-6.476,2.669-12.998,3.68-19.552c3.789-3.647,7.578-7.294,11.367-10.94   C757.702,614.107,757.033,613.522,756.623,613.916z"/>
</g>
<g>
	<g>
		<path fill="#2A94F4" d="M799.52,633.224c-14.929,19.327-38.525,31.109-62.938,31.45c-0.749,0.01,0.246-1.421,0.315-1.553    c11.764-22.544,37.127-35.101,62.185-30.8C799.476,632.388,799.812,632.849,799.52,633.224z"/>
	</g>
	<path fill="#FAFAFA" d="M792.451,634.393c-14.559,7.722-29.118,15.445-43.677,23.167c3.146-4.011,6.293-8.022,9.439-12.033   c0.321-0.409-0.285-0.95-0.608-0.538c-3.532,4.502-7.063,9.004-10.595,13.506c-4.481,2.377-8.961,4.753-13.442,7.13   c-0.462,0.245-0.015,0.923,0.443,0.68c4.404-2.336,8.807-4.671,13.211-7.007c0.105,0.007,0.213-0.031,0.3-0.143   c0.007-0.009,0.015-0.019,0.022-0.028c15.117-8.018,30.234-16.036,45.351-24.055C793.356,634.828,792.909,634.15,792.451,634.393z"/>
	<path fill="#FAFAFA" d="M774.586,637.803c0.342-0.394-0.265-0.933-0.608-0.538c-3.182,3.664-6.364,7.328-9.545,10.992   c-0.342,0.394,0.265,0.933,0.608,0.538C768.223,645.131,771.404,641.467,774.586,637.803z"/>
	<path fill="#FAFAFA" d="M787.413,642.74c-2.969,0.013-5.938,0.025-8.907,0.038c3.03-3.083,6.061-6.166,9.091-9.249   c0.367-0.373-0.243-0.91-0.608-0.538c-3.202,3.258-6.404,6.515-9.606,9.773c-0.35,0.356,0.187,0.851,0.554,0.574   c0.059,0.141,0.187,0.252,0.381,0.252l9.144-0.039C787.986,643.548,787.934,642.738,787.413,642.74z"/>
	<path fill="#FAFAFA" d="M775.803,650.646l-10.02-1.769c-0.514-0.091-0.674,0.705-0.157,0.797l10.02,1.769   C776.159,651.534,776.319,650.738,775.803,650.646z"/>
	<path fill="#FAFAFA" d="M758.422,658.088c-3.112,0.275-6.21,0.155-9.292-0.364c-0.514-0.087-0.675,0.709-0.158,0.797   c3.148,0.53,6.318,0.658,9.499,0.377C758.992,658.852,758.944,658.042,758.422,658.088z"/>
</g>
<g>
	<g>
		<path fill="#0B4870" d="M738.651,653.834c-1.1-1.59-2.055-3.666-1.328-6.473c0.784-3.016,3.178-5.538,5.404-7.781    c2.92-2.939,5.34-5.571,6.2-9.468c0.621-2.808,0.613-5.606,2.112-8.542c1.744-3.416,4.927-5.71,7.762-6.979    c3.306-1.476,6.573-1.868,9.908-4.094c2.018-1.348,3.629-3.138,4.815-5.474c0.857-1.691,1.474-3.418,2.345-5.103    c2.806-5.44,8.066-8.433,11.287-6.971c3.441,0.515,5.183,4.242,3.411,9.436c-1.418,4.155-4.696,7.184-7.432,10.645    c-2.961,3.742-3.632,7.049-3.976,10.807c-0.232,2.556-0.396,5.253-1.71,8.04c-1.319,2.803-3.574,4.934-5.824,6.785    c-2.748,2.265-6.081,4.52-7.706,8.098c-0.869,1.918-1.156,3.83-2.093,5.755c-0.64,1.309-1.504,2.549-2.484,3.654    c-5.274,5.954-11.411,5.939-15.102,3.51C742.033,658.229,740.204,656.08,738.651,653.834z"/>
	</g>
	<path fill="#FAFAFA" d="M785.09,600.919c-4.189,5.165-8.354,10.349-12.495,15.551c0.541-2.67,1.082-5.341,1.623-8.011   c0.104-0.513-0.704-0.596-0.807-0.088l-1.87,9.228c-0.015,0.074-0.007,0.137,0.012,0.193c-3.471,4.368-6.921,8.753-10.359,13.147   c0.167-4.569,0.334-9.138,0.501-13.707c0.019-0.52-0.788-0.61-0.807-0.088c-0.178,4.877-0.356,9.753-0.535,14.63   c-0.003,0.074,0.014,0.137,0.041,0.193c-3.184,4.074-6.341,8.168-9.497,12.264c0.283-3.794,0.565-7.588,0.848-11.381   c0.039-0.521-0.768-0.609-0.807-0.088c-0.314,4.211-0.628,8.421-0.941,12.632c-2.112,2.745-4.218,5.495-6.319,8.249l0.968-11.456   c0.044-0.521-0.763-0.609-0.807-0.088c-0.326,3.862-0.653,7.724-0.979,11.586c-0.022,0.26,0.169,0.4,0.371,0.421   c-0.005,0.04-0.006,0.081,0,0.123c-2.42,3.174-4.832,6.354-7.231,9.545c-0.315,0.418,0.344,0.893,0.658,0.475   c2.426-3.227,4.866-6.444,7.314-9.654c3.892-0.219,7.75-0.67,11.587-1.362c0.514-0.093,0.385-0.894-0.13-0.801   c-3.579,0.645-7.177,1.074-10.802,1.308c1.957-2.565,3.917-5.127,5.885-7.685c0.142-0.035,0.261-0.143,0.275-0.335   c0.001-0.007,0.001-0.015,0.002-0.022c0.093-0.12,0.186-0.24,0.279-0.36c3.883-0.666,7.766-1.331,11.649-1.997   c0.515-0.088,0.386-0.89-0.13-0.801c-3.595,0.616-7.189,1.233-10.784,1.849c3.119-4.05,6.243-8.097,9.391-12.125   c4.184-0.762,8.368-1.525,12.552-2.287c0.513-0.094,0.385-0.895-0.13-0.801c-3.891,0.709-7.782,1.418-11.673,2.127   c3.495-4.467,7.002-8.924,10.532-13.364c0.063,0.027,0.133,0.043,0.217,0.029l6.047-1.001c0.515-0.085,0.387-0.887-0.13-0.801   c-1.816,0.301-3.632,0.601-5.448,0.901c4.172-5.242,8.368-10.466,12.588-15.67C786.078,600.987,785.419,600.514,785.09,600.919z"/>
</g>
<g>
	<g>
		<g>
			<path fill="#2A94F4" d="M368.915,526.039h-0.533c-2.509,0-4.543,2.034-4.543,4.542v10.435c0,2.509,2.034,4.543,4.543,4.543h0.533     c2.509,0,4.543-2.034,4.543-4.543v-10.435C373.458,528.073,371.424,526.039,368.915,526.039z"/>
			<path fill="#0B4870" d="M373.792,554.576v-0.542c0-0.622-0.505-1.127-1.127-1.127h-7.738c-0.622,0-1.127,0.505-1.127,1.127v0.542     H373.792z"/>
			<path fill="#2A94F4" d="M369.176,547.451h-0.761c-0.036,0-0.07-0.005-0.105-0.005v5.461h0.972v-5.461     C369.246,547.446,369.212,547.451,369.176,547.451z"/>
			<path fill="#0B4870" d="M374.284,537.75v3.401c0,3.09-2.07,5.343-5.16,5.343h-0.657c-3.09,0-5.461-2.252-5.461-5.343v-3.401     h-0.866v3.652c0,3.58,2.695,6.049,6.274,6.049h0.761c3.58,0,5.968-2.469,5.968-6.049v-3.652H374.284z"/>
		</g>
		<g>
			<rect x="359.866" y="537.164" fill="#0B4870" width="17.553" height="1.171"/>
		</g>
	</g>
</g>
<path fill="#D3D3D3" d="M820.76,688.745H266.431c-9.58,0-17.346-7.766-17.346-17.346l0,0c0-9.58,7.766-17.346,17.346-17.346H820.76  c9.58,0,17.346,7.766,17.346,17.346l0,0C838.106,680.978,830.34,688.745,820.76,688.745z"/>
<rect x="367.677" y="554.576" fill="#2A94F4" width="2.062" height="52.393"/>
<polyline fill="none" stroke="#00AEF0" stroke-miterlimit="10" points="368.708,654.052 368.708,606.969 384.922,654.052 "/>
<g>
	<path fill="#FAB9AF" d="M340.968,648.102l0.016,4.355c0.003,0.886-0.117,1.768-0.358,2.621l-0.379,1.341   c-0.311,1.101,0.517,2.194,1.661,2.19c2.966-0.011,8.036-0.003,9.342-0.001c0.214,0,0.423-0.144,0.442-0.357   c0.11-1.271-3.562-2.123-6.328-3.194c-2.107-0.816-1.995-4.603-1.735-6.814c0.098-0.835-0.599-1.547-1.437-1.477l0,0   C341.498,646.824,340.965,647.406,340.968,648.102z"/>
	<path fill="#FAB9AF" d="M320.582,646.881l-1.501,4.982c-0.066,0.22-0.165,0.429-0.294,0.62l-1.064,1.58   c-0.675,1.003-0.189,2.373,0.967,2.726c0,0,2.145,0.754,4.356,1.481c2.263,0.744,5.11,0.122,5.11-0.475   c0-1.327-1.237-0.274-3.309-1.66c-0.695-0.464-1.411-0.95-2.05-1.452c-1.784-1.4-0.226-4.945,0.866-6.941   c0.393-0.718-0.024-1.609-0.824-1.779l-0.517-0.11C321.562,645.69,320.805,646.137,320.582,646.881z"/>
	<path fill="#0B4870" d="M335.909,588.608l16.438-1.38c0,0,1.655,11.964-2.499,33.622c-1.948,10.156-6.009,29.565-6.009,29.565   c-1.006,0.44-2.03,0.551-3.072,0.291c0,0-0.308-8.561-0.497-17.781c-0.181-8.842-0.23-18.29-0.793-21.381   C338.327,605.23,335.909,588.608,335.909,588.608z"/>
	<path fill="#0B4870" d="M339.302,588.816c1.697,9.108,5.489,22.729-1.815,35.524c-7.303,12.795-14.974,26.098-14.974,26.098   c-0.988,0.04-1.884-0.318-2.717-0.95c0,0,1.281-5.801,3.132-12.574c2.118-7.749,4.8-16.863,4.035-21.615   c-1.432-8.906-3.077-20.767-2.579-26.527C324.883,583.012,338.409,584.027,339.302,588.816z"/>
	<g>
		<g>
			<g>
				<path fill="#FAB9AF" d="M348.027,552.393c0,0,2.255-1.078,3.245-1.643c0.99-0.563,3.535-1.338,3.741-1.521      c0.205-0.184,7.546-0.637,7.992-1.02c0.445-0.384,0.878,0.9-1.025,1.317c-1.903,0.417-4.55,1.436-4.695,2.18      c-0.144,0.744,1.954,0.92,2.167,1.532c0.213,0.612-0.06,0.476-0.36,0.606c-0.301,0.132-2.497-1.084-3.463-0.739      c-0.966,0.346-2.442-0.133-3.182,0.121c-0.74,0.253-4.339,1.464-4.339,1.464L348.027,552.393z"/>
			</g>
		</g>
	</g>
	<g>
		<g>
			<g>
				<path fill="#EAD8CF" d="M352.096,553.985l1.161-0.429c0,0-1.448-3.399-2.08-3.317c-0.729,0.096-1.637,0.336-1.637,0.336      L352.096,553.985z"/>
			</g>
		</g>
	</g>
	<g>
		<g>
			<g>
				<path fill="#DA9B5B" d="M352.361,554.572c-0.149-0.111-2.469-4.563-2.469-4.563l-4.958,0.673l2.679,5.273L352.361,554.572z"/>
			</g>
		</g>
	</g>
	<g>
		<g>
			<g>
				<path fill="#FAB9AF" d="M365.228,561.14c0,0,1.894-1.704,2.811-2.418c0.917-0.713,2.637-2.811,2.89-2.932      c0.253-0.123,3.538-6.865,4.074-7.135c0.535-0.271-0.507-1.179-1.641,0.452c-1.134,1.631-3.125,3.729-3.882,3.577      c-0.757-0.154-0.106-2.201-0.6-2.638c-0.495-0.44-0.471-0.13-0.712,0.102c-0.241,0.234,0.05,2.776-0.652,3.552      c-0.701,0.774-0.826,2.353-1.352,2.951c-0.527,0.599-3.069,3.52-3.069,3.52L365.228,561.14z"/>
			</g>
		</g>
	</g>
	<g>
		<g>
			<g>
				<path fill="#FAB9AF" d="M335.027,519.068c0,0,5.684-2.123,8.306,2.204c2.621,4.326,2.368,12.988-0.497,14.054      c-2.865,1.065-7.169,0.508-8.636-2.199c-1.467-2.707-2.792-6.621-2.728-9.237C331.535,521.273,333.534,519.822,335.027,519.068z      "/>
			</g>
		</g>
	</g>
	<g>
		<g>
			<g>
				<path fill="#FAB9AF" d="M342.218,535.524c0,0-0.459,4.08-0.068,4.837c0.391,0.755-7.096,0-7.096,0s-0.676-5.882-1.869-9.358      C331.992,527.53,342.218,535.524,342.218,535.524z"/>
			</g>
		</g>
	</g>
	<g>
		<g>
			<g>
				<path fill="#0B4870" d="M333.186,531.003c0,0,0.275,4.379,2.461,4.036c2.185-0.342,5.11-6.745,6.022-7.063      c0.912-0.32,0.921-0.856,0.921-0.856l0.571,0.835l0.969,0.062c0,0-0.883-2.6,0.449-3.661c1.333-1.06-1.384-8.417-8.39-5.968      c0,0-5.382,1.484-5.186,4.544C331.198,525.993,331.981,529.48,333.186,531.003z"/>
			</g>
		</g>
	</g>
	<g>
		<g>
			<g>
				<path fill="#E2D2CA" d="M343.038,541.271c0,0-0.025-1.443-0.679-1.583c-0.655-0.138-7.227-0.77-8.031-0.454v1.683      C334.328,540.917,335.877,541.87,343.038,541.271z"/>
			</g>
		</g>
	</g>
	<g>
		<g>
			<g>
				<path fill="#EEA886" d="M342.444,526.008c-0.122-0.514-1.428-1.981-1.928-0.409c-0.5,1.57,0.756,3.683,1.456,3.501      C342.672,528.92,342.755,527.31,342.444,526.008z"/>
			</g>
		</g>
	</g>
	<g>
		<g>
			<g>
				<g>
					<path fill="#FFBE55" d="M323.388,595.212c0,0,3.486,1.027,9.43,1.682c5.944,0.655,20.797-0.236,20.89-0.938       c0.094-0.703-3.195-26.152-3.007-27.462c0.187-1.311,0.287-5.98,0.287-5.98c0.074,1.28,1.377,6.506,2.951,9.355       c0.568,1.029,2.475,4.255,3.395,3.521c4.45-3.552,11.34-16.939,11.777-17.052c-0.368-0.16-3.265-1.494-3.672-1.629       c-0.356-0.119-3.566,3.279-5.511,5.386c-0.867,0.939-1.483,1.622-1.483,1.622c-0.562-1.264-2.608-9.225-3.243-11.98       c-1.434-6.214-1.213-6.472-1.213-6.472c-4.349-1.315-10.95-3.993-10.95-3.993l-8.71-0.354c0,0-7.994,1.759-11.142,3.181       c-0.299,0.135-0.3,7.132-1.119,8.966l2.61,5.507c0,0,1.507,10.908,1.82,15.759       C326.641,576.556,323.388,595.212,323.388,595.212z"/>
				</g>
			</g>
		</g>
	</g>
	<g>
		<g>
			<g>
				<g>
					<path fill="#FFBE55" d="M321.705,562.148c0.228,0.734,1.26,1.354,1.931,1.625c0.43,0.173,0.91,0.23,1.395,0.14l0.341-0.063       v-0.001l5.969-1.108c0,0,1.306-15.041-8.154-18.645C322.936,544.18,319.616,555.413,321.705,562.148z"/>
				</g>
			</g>
		</g>
	</g>
	<g>
		<g>
			<g>
				<path fill="#0B4870" d="M333.408,519.578c0,0-7.152,0.725-0.127,11.584L333.408,519.578z"/>
			</g>
		</g>
	</g>
</g>
<line fill="none" stroke="#00AEF0" stroke-miterlimit="10" x1="354.114" y1="654.052" x2="368.708" y2="606.969"/>
<g>
	<circle fill="#FFBE55" cx="486.281" cy="604.076" r="21.474"/>
	<rect x="478.155" y="595.992" fill="#FFFFFF" width="16.168" height="16.168"/>
</g>
<circle opacity="0.19" fill="#2A94F4" cx="539.414" cy="604.594" r="21.474"/>
<g>
	<circle fill="#FFBE55" cx="592.955" cy="604.641" r="21.474"/>
	<polygon fill="#FFFFFF" points="588.415,595.427 602.469,604.207 588.415,613.854  "/>
</g>
<g>
	<circle fill="#FFBE55" cx="640.961" cy="604.594" r="21.474"/>
	<polygon fill="#FFFFFF" points="636.981,597.546 644.941,604.262 636.981,611.641  "/>
	<polygon fill="#FFFFFF" points="641.459,597.546 649.418,604.262 641.459,611.641  "/>
</g>
<g>
	<circle fill="#FFBE55" cx="429.649" cy="604.594" r="21.474"/>
	<polygon fill="#FFFFFF" points="433.629,597.546 425.669,604.262 433.629,611.641  "/>
	<polygon fill="#FFFFFF" points="429.152,597.546 421.192,604.262 429.152,611.641  "/>
</g>
<circle fill="#0E538C" cx="539.414" cy="604.076" r="7.825"/>
<path fill="#0B4870" d="M340.393,655.902l6.249-0.38c0,0,4.655,0.711,5.251,1.775c0.596,1.064,0.34,1.532,0.34,1.532h-11.277  C340.957,658.83,338.765,657.869,340.393,655.902z"/>
<path fill="#0B4870" d="M317.404,653.813l6.16,1.12c0,0,4.352,1.8,4.677,2.975c0.325,1.175-0.034,1.569-0.034,1.569l-10.952-2.687  C317.255,656.79,315.354,655.335,317.404,653.813z"/>
</svg>