<svg id="bd4b6861-82ef-46a6-98ee-d024bab98a86" data-name="Layer 1" xmlns="http://www.w3.org/2000/svg" width="865.76" height="682.89" viewBox="0 0 865.76 682.89"><g id="f42f33da-0426-4449-b239-5401d3b5f7e3" data-name="freepik--background-complete--inject-201"><rect x="731.51" y="62.14" width="63.51" height="18.71" fill="#ebebeb"/><path d="M766.93,38.55c10.58-.17,37.27-.6,47.51-.7h16.77V58.16h-.83l-31.78-.11c-7.91,0-23.84-.24-31.77-.35h-.24v-.37L767,38.61Zm0,0,.38,18.71-.38-.38c7.93-.1,23.85-.27,31.77-.34l31.78-.12-.84.84.08-18.71.76.77H814.74c-10-.1-37.36-.52-47.78-.69Z" fill="#ebebeb"/><path d="M696.06,38.55c10.58-.17,37.29-.6,47.51-.7h16.77V58.16h-.84l-31.77-.11c-7.91,0-23.86-.24-31.77-.35h-.39v-.37l.37-18.72Zm0,0,.38,18.71-.38-.38c7.92-.1,23.84-.27,31.77-.34l31.77-.12-.83.84V38.55l.77.77H743.78c-10-.1-37.35-.52-47.77-.69Z" fill="#ebebeb"/><path d="M157.58,38.55c10.57-.17,37.28-.6,47.5-.7h16.79V58.16H221l-31.77-.11c-7.91,0-23.85-.24-31.78-.35h-.38v-.37l.38-18.72Zm0,0,.3,18.71-.36-.38c7.92-.1,23.83-.27,31.77-.34l31.77-.12-.83.84V38.55l.77.77H205.24c-10-.1-37.36-.52-47.76-.69Z" fill="#ebebeb"/><rect x="193.02" y="615.1" width="63.51" height="18.71" fill="#ebebeb"/><path d="M157.58,591.5c10.57-.16,37.28-.6,47.5-.7h16.79v20.32H221L189.26,611c-7.91,0-23.85-.23-31.78-.35h-.38v-.37l.38-18.71Zm0,0,.3,18.72-.36-.39c7.92-.1,23.83-.27,31.77-.33l31.77-.12-.83.84V591.5l.77.77-15.66-.1c-10-.1-37.36-.52-47.76-.68Z" fill="#ebebeb"/><path d="M766.93,615.08c10.58-.18,37.27-.6,47.51-.7h16.77V634.7h-.83l-31.78-.12c-7.91,0-23.84-.23-31.77-.35h-.24v-.37l.37-18.71Zm0,0,.38,18.72-.38-.39c7.93-.1,23.85-.27,31.77-.33l31.78-.12-.84.84.08-18.72.76.76H814.74c-10-.1-37.36-.52-47.78-.69Z" fill="#ebebeb"/><rect x="296.13" y="214.14" width="63.51" height="18.71" fill="#ebebeb"/><rect x="519.41" y="472.14" width="63.51" height="18.71" fill="#ebebeb"/><path d="M547.53,514.45c-10.59.18-37.28.6-47.51.7l-16,.1h-.77V494.93H484l31.77.12c7.9,0,23.85.23,31.78.35h.38v.37Zm0,0-.39-18.72.39.39c-7.93.1-23.85.26-31.78.33l-31.77.12.82-.84v18.72l-.75-.76h15.73c10,.1,37.36.52,47.78.69Z" fill="#ebebeb"/><path d="M200.53,9.1V289.49H393.68V9.1Zm186,273.25H207.65V16.24H386.59Z" fill="#ebebeb"/><rect x="207.65" y="16.24" width="178.85" height="266.13" fill="#fff"/><rect x="207.65" y="154.09" width="178.85" height="7.12" fill="#ebebeb"/><rect x="187.42" y="289.47" width="219.34" height="20.45" fill="#dbdbdb"/><path d="M207.65,16.22H386.59v183H207.65ZM379.9,22.83H214.24V192.61H379.91Z" fill="#dbdbdb"/><rect x="325.86" y="16.22" width="3.56" height="176.39" fill="#dbdbdb"/><rect x="264.73" y="16.22" width="3.56" height="176.39" fill="#dbdbdb"/><path d="M594.35,9.1V289.49H787.51V9.1Zm186,273.25H601.52V16.24H780.46Z" fill="#ebebeb"/><rect x="601.52" y="16.24" width="178.85" height="266.13" fill="#fff"/><rect x="601.52" y="154.09" width="178.85" height="7.12" fill="#ebebeb"/><rect x="581.29" y="289.47" width="219.34" height="20.45" fill="#dbdbdb"/><path d="M601.52,16.22H780.46v183H601.52Zm172.25,6.61H608.11V192.61H773.79Z" fill="#dbdbdb"/><rect x="719.74" y="16.22" width="3.56" height="176.39" fill="#dbdbdb"/><rect x="658.6" y="16.22" width="3.56" height="176.39" fill="#dbdbdb"/></g><circle cx="252.69" cy="241.37" r="229.4" fill="#0071f2"/><circle cx="252.69" cy="241.37" r="216.33" fill="#fff" opacity="0.4" style="isolation:isolate"/><path d="M463.79,241.37c.09,116.67-94.42,211.31-211.08,211.4S41.4,358.36,41.31,241.7,135.72,30.39,252.39,30.3a211.24,211.24,0,0,1,211.4,211.07Z" fill="#fff" opacity="0.7" style="isolation:isolate"/><path d="M252.68,12C126,12,23.29,114.7,23.3,241.39S126,470.78,252.72,470.77,482.1,368.06,482.1,241.37,379.39,12,252.7,12Zm0,454.21c-124.17,0-224.83-100.66-224.83-224.83S128.51,16.52,252.68,16.52,477.5,117.18,477.5,241.35v0c0,124.16-100.64,224.81-224.8,224.81Z" opacity="0.2" style="isolation:isolate"/><path d="M355.4,57,252.68,243V30.29A209.32,209.32,0,0,1,355.4,57Z" fill="#0071f2"/><path d="M355.4,57,252.68,243V30.29A209.32,209.32,0,0,1,355.4,57Z" fill="#fff" opacity="0.5" style="isolation:isolate"/><g opacity="0.7"><path d="M259.5,43.4l3.39.15-1,15.42,9.56.59-.19,2.87-12.94-.8Z" fill="#fff"/><path d="M271.73,54.44l1.48-10.24,3.38.5-1.48,10.09c-.55,3.72.89,5.57,3.83,6s4.81-.94,5.36-4.66L285.78,46l3.31.5-1.5,10.22c-.76,5.27-4.16,7.71-9.11,7S271,59.75,271.73,54.44Z" fill="#fff"/><path d="M308.34,51.15,304,68.92l-2.73-.67-6.81-14.46-3,12L288.2,65l4.35-17.77,2.72.68,6.82,14.46,3-12Z" fill="#fff"/><path d="M307.58,60.47a9.9,9.9,0,0,1,18.2-.33L323,61.36a6.89,6.89,0,1,0-10.28,7.77,6.67,6.67,0,0,0,2,.73,6.35,6.35,0,0,0,5.33-.42l1.39,2.7a9.93,9.93,0,0,1-14-11.67Z" fill="#fff"/><path d="M343.31,65.15l-7.7,16.6-3.1-1.44,3.31-7.1-8.58-4-3.37,7.09-3.07-1.43,7.71-16.6,3.07,1.44-3.18,6.86,8.58,4,3.18-6.86Z" fill="#fff"/></g><path d="M252.7,249.21a5.75,5.75,0,0,1-.83,0,7.84,7.84,0,0,1-7-8.6l13.66-132a7.84,7.84,0,1,1,15.61,1.4,1.94,1.94,0,0,1,0,.24l-13.7,131.88A7.86,7.86,0,0,1,252.7,249.21Z" fill="#2f2e41"/><path d="M263.68,138.21h-.26a2.61,2.61,0,0,1-2.34-2.86h0l2.71-26.13a2.61,2.61,0,0,1,5.2.54h0l-2.7,26.13A2.63,2.63,0,0,1,263.68,138.21Z" fill="#0071f2"/><g opacity="0.2"><path d="M252.7,249.21a5.75,5.75,0,0,1-.83,0,7.84,7.84,0,0,1-7-8.6l13.66-132a7.84,7.84,0,1,1,15.61,1.4,1.94,1.94,0,0,1,0,.24l-13.7,131.88A7.86,7.86,0,0,1,252.7,249.21Z" fill="#fff"/><path d="M263.68,138.21h-.26a2.61,2.61,0,0,1-2.34-2.86h0l2.71-26.13a2.61,2.61,0,0,1,5.2.54h0l-2.7,26.13A2.63,2.63,0,0,1,263.68,138.21Z" fill="#fff"/></g><path d="M252.68,66.15a1.08,1.08,0,0,1-1.09-1.08V40.94a1.11,1.11,0,0,1,1.09-1.09,1.09,1.09,0,0,1,1.09,1.09V65.07A1.08,1.08,0,0,1,252.68,66.15Z" fill="#2f2e41"/><path d="M252.68,442.9a1.11,1.11,0,0,1-1.09-1.09V417.66a1.11,1.11,0,0,1,1.09-1.09,1.09,1.09,0,0,1,1.09,1.09v24.15A1.09,1.09,0,0,1,252.68,442.9Z" fill="#2f2e41"/><path d="M453.11,242.46H429a1.09,1.09,0,0,1,0-2.18h24.12a1.09,1.09,0,0,1,0,2.18Z" fill="#2f2e41"/><path d="M76.39,242.46H52.27a1.09,1.09,0,0,1,0-2.18H76.39a1.09,1.09,0,0,1,0,2.18Z" fill="#2f2e41"/><path d="M166.83,88.48a1.07,1.07,0,0,1-.93-.57L154.14,66.83a1.08,1.08,0,0,1,.41-1.48,1.1,1.1,0,0,1,1.48.43l11.76,21.08a1.12,1.12,0,0,1-.41,1.49A1.31,1.31,0,0,1,166.83,88.48Z" fill="#2f2e41"/><path d="M350.28,417.53a1.17,1.17,0,0,1-.95-.57l-11.74-21.08a1.09,1.09,0,1,1,1.89-1.07l11.76,21.08a1.09,1.09,0,0,1-.43,1.48h0A.92.92,0,0,1,350.28,417.53Z" fill="#2f2e41"/><path d="M77.64,340.07a1.11,1.11,0,0,1-1-.57,1.06,1.06,0,0,1,.38-1.46l0,0,21.08-11.76a1.1,1.1,0,0,1,1.07,1.92L78.16,339.91A1,1,0,0,1,77.64,340.07Z" fill="#2f2e41"/><path d="M406.62,156.62a1.1,1.1,0,0,1-.52-2.05l21.08-11.74a1.09,1.09,0,0,1,1.48.42,1.12,1.12,0,0,1-.41,1.48l-21.08,11.73A1.1,1.1,0,0,1,406.62,156.62Z" fill="#2f2e41"/><path d="M338.52,88.48a1.33,1.33,0,0,1-.52-.13,1.09,1.09,0,0,1-.41-1.49l11.74-21.08a1.09,1.09,0,1,1,1.91,1h0L339.48,87.91A1.09,1.09,0,0,1,338.52,88.48Z" fill="#2f2e41"/><path d="M155.1,417.53a1,1,0,0,1-.55-.16,1.06,1.06,0,0,1-.43-1.44l0,0,11.76-21.08a1.09,1.09,0,0,1,1.89,1.07L156,417A1.1,1.1,0,0,1,155.1,417.53Z" fill="#2f2e41"/><path d="M427.74,340.07a1,1,0,0,1-.52-.16l-21.08-11.73a1.1,1.1,0,0,1,1.06-1.92h0L428.29,338a1.08,1.08,0,0,1,.41,1.48A1.11,1.11,0,0,1,427.74,340.07Z" fill="#263238"/><path d="M98.69,156.62a1,1,0,0,1-.52-.16L77.09,144.73a1.09,1.09,0,0,1,1.07-1.9l21.08,11.74a1.08,1.08,0,0,1,.41,1.48A1.09,1.09,0,0,1,98.69,156.62Z" fill="#2f2e41"/><path d="M252.68,249.21a7.82,7.82,0,0,1-6.84-11.65l79.9-143.73a7.84,7.84,0,0,1,13.87,7.32l-.17.31-79.9,143.72A7.85,7.85,0,0,1,252.68,249.21Z" fill="#2f2e41"/><path d="M264.46,241.37a11.78,11.78,0,1,1-11.78-11.78,11.77,11.77,0,0,1,11.78,11.78Z" fill="#2f2e41"/><path d="M252.68,247.93a6.54,6.54,0,1,1,6.53-6.54h0A6.53,6.53,0,0,1,252.68,247.93Z" fill="#fff" opacity="0.2" style="isolation:isolate"/><path d="M318.79,125.15a2.78,2.78,0,0,1-1.26-.33,2.61,2.61,0,0,1-1-3.55L330.4,96.49a2.61,2.61,0,1,1,4.78,2.12A2.38,2.38,0,0,1,335,99l-13.78,24.8A2.64,2.64,0,0,1,318.79,125.15Z" fill="#0071f2"/><path d="M626.25,402.41c-37.65,9.89-176,.47-176,.47l2.92-8L503,367.59l60.71-7.06,49.89,21.65Z" fill="#bcbec0"/><path d="M622,406.86h0a3.66,3.66,0,0,1,3.66,3.66V640a0,0,0,0,1,0,0h-7.32a0,0,0,0,1,0,0V410.53a3.66,3.66,0,0,1,3.66-3.66Z" transform="translate(1291.57 984.6) rotate(174.48)" fill="#bcbec0"/><path d="M484.9,395.44h7.32a0,0,0,0,1,0,0V624.94a3.66,3.66,0,0,1-3.66,3.66h0a3.66,3.66,0,0,1-3.66-3.66V395.44a0,0,0,0,1,0,0Z" transform="translate(23.65 -21.57) rotate(2.59)" fill="#bcbec0"/><path d="M591.18,392.58h0a3.66,3.66,0,0,1,3.66,3.66V625.75a0,0,0,0,1,0,0h-7.32a0,0,0,0,1,0,0V396.24a3.66,3.66,0,0,1,3.66-3.66Z" transform="translate(1205.71 989.89) rotate(177.3)" fill="#bcbec0"/><path d="M560.6,603.81s2.07,15.91-3.46,29.39c0,0-4.09,17.41.93,24.69a5.62,5.62,0,0,0,5.37,2.35c8.51-1.14,39.43-5.81,40-13.56,0,0,0-12.79-5.88-23.51,0,0-7.6-11.75-8-24.2a9.29,9.29,0,0,0-3.8-6.22Z" fill="#0071f2"/><path d="M324.74,337.79h7.32a0,0,0,0,1,0,0V670.9a3.66,3.66,0,0,1-3.66,3.66h0a3.66,3.66,0,0,1-3.66-3.66V337.79A0,0,0,0,1,324.74,337.79Z" transform="translate(50.24 -29.26) rotate(5.52)" fill="#bcbec0"/><path d="M365.26,337h7.32a0,0,0,0,1,0,0V636.6a3.66,3.66,0,0,1-3.66,3.66h0a3.66,3.66,0,0,1-3.66-3.66V337a0,0,0,0,1,0,0Z" transform="translate(18.46 -13.4) rotate(2.13)" fill="#bcbec0"/><path d="M707.92,337.53h0a3.66,3.66,0,0,1,3.66,3.66V640.83a0,0,0,0,1,0,0h-7.32a0,0,0,0,1,0,0V341.19A3.66,3.66,0,0,1,707.92,337.53Z" transform="matrix(-1, 0.04, -0.04, -1, 1432.78, 952.88)" fill="#bcbec0"/><path d="M749.3,337.79h0a3.66,3.66,0,0,1,3.66,3.66V674.56a0,0,0,0,1,0,0h-7.32a0,0,0,0,1,0,0V341.45A3.66,3.66,0,0,1,749.3,337.79Z" transform="translate(1543.84 937.89) rotate(174.48)" fill="#bcbec0"/><polygon points="842.47 332.92 234.32 332.92 318.32 294.6 755.47 294.6 842.47 332.92" fill="#bcbec0"/><path d="M670.46,294.31c-2.7,14.18-11.61,16.67-19.47,15.84a28,28,0,0,1-18.74-10.48c-8.61-10.67-21.79-28.93-21.79-28.93-6.43-9-16.13-14.54-16.13-14.54-2.66,19.3,6.53,38.35,6.53,38.35l-89.72-.41a10.73,10.73,0,0,0,.16-2.55,5.17,5.17,0,0,0,3.36-4.68,2,2,0,0,0-1.91-2.15l-17.7-.31-1.25-1.39c1.39-.06,12.67-.58,14.48-4.7a1.51,1.51,0,0,0-1.41-2.08l-19.11.09-5.91-6.53c-3.33-2-3-7-3-7-10.65-5.32-13.31-22-13.31-22l-28,38.6c.34,3.66,10.32,11,10.32,11-6.32-.33-8.65,4-8.65,4-6,11.75,1.27,16.83,1.94,17.27l.05,0c-24.29,1.67-45.92-10.65-45.92-10.65C383,294.8,400,268.18,400,268.18c16.31-39.93,55-98,55-98l2.91-6.14,14.58-10.29,30.42-10.28L547,131l32.67,10.26c33.53,1.7,49.61,50.17,49.61,50.17l35.57,78.42A34.76,34.76,0,0,1,670.46,294.31Z" fill="#0071f2"/><path d="M460.59,151.11s-3.41,6.42-5.62,19.06c0,0,10.84-12.84,28.09-10.83,0,0,11.24,1,17.86.2,0,0-3.63-6.8-5.64-20.44C495.28,139.1,485.54,152.86,460.59,151.11Z" fill="#2f2e41"/><path d="M460.59,151.11s-3.41,6.42-5.62,19.06c0,0,10.84-12.84,28.09-10.83,0,0,11.24,1,17.86.2,0,0-3.63-6.8-5.64-20.44C495.28,139.1,485.54,152.86,460.59,151.11Z" opacity="0.2"/><path d="M511.3,291.59a10.73,10.73,0,0,1-.16,2.55h-7.32l-8.77-9.69,17.7.31a2,2,0,0,1,1.91,2.15A5.17,5.17,0,0,1,511.3,291.59Z" fill="none" stroke="#000" stroke-miterlimit="10" stroke-width="0.25"/><path d="M615.54,242.85l11.49,5.3s5.17,21.6-16.57,22.59l-8.1-9.09Z" fill="#f7a48b"/><path d="M531.64,193.4l-22.57,9.48c-13.39-13.25-11.58-43-11.58-43a15.11,15.11,0,0,0,3.45-.31,42.65,42.65,0,0,0,11.61,14.8A43.64,43.64,0,0,0,531.64,193.4Z" fill="#0071f2"/><path d="M531.64,193.4l-22.57,9.48c-13.39-13.25-11.58-43-11.58-43a15.11,15.11,0,0,0,3.45-.31,42.65,42.65,0,0,0,11.61,14.8A43.64,43.64,0,0,0,531.64,193.4Z" opacity="0.2"/><path d="M533,193.09l18.66,9.18s20.61-17.76,13.39-51.91l-4.62,3.71S552.41,181.66,533,193.09Z" fill="#0071f2"/><path d="M533,193.09l18.66,9.18s20.61-17.76,13.39-51.91l-4.62,3.71S552.41,181.66,533,193.09Z" opacity="0.2"/><path d="M474.28,197.93c-.15,2.18-.41,4.34-.69,6.5s-.61,4.31-1,6.45-.74,4.29-1.18,6.42l-.68,3.19c-.26,1.06-.48,2.12-.77,3.18.06-1.09.19-2.17.29-3.26l.4-3.24c.27-2.16.61-4.3,1-6.45s.74-4.29,1.18-6.41S473.72,200.05,474.28,197.93Z" opacity="0.2"/><path d="M464.8,227.5c0,2,.09,4,.28,6a59.84,59.84,0,0,0,.8,6A47.71,47.71,0,0,0,469.34,251a33.54,33.54,0,0,0,2.91,5.2,29.16,29.16,0,0,0,3.89,4.49,27.38,27.38,0,0,0,10.33,5.92,26.92,26.92,0,0,1-2.92-.82l-1.43-.52-1.39-.63a24.37,24.37,0,0,1-5.1-3.37,29,29,0,0,1-7.2-9.86,45,45,0,0,1-3.31-11.73A50.78,50.78,0,0,1,464.8,227.5Z" fill="#0071f2"/><path d="M464.65,227.5a57.88,57.88,0,0,0,.28,6,59.82,59.82,0,0,0,.79,6A47.73,47.73,0,0,0,469.19,251a34.33,34.33,0,0,0,2.9,5.2,29.71,29.71,0,0,0,3.89,4.49,27.35,27.35,0,0,0,10.34,5.92,26.92,26.92,0,0,1-2.92-.82l-1.44-.52-1.39-.63a24.63,24.63,0,0,1-5.1-3.37,28.85,28.85,0,0,1-7.19-9.86A45,45,0,0,1,465,239.63,50.27,50.27,0,0,1,464.65,227.5Z" opacity="0.2"/><path d="M592.29,188.12c.93,2,1.76,4.07,2.57,6.13s1.57,4.15,2.32,6.23,1.45,4.18,2.1,6.3l1,3.18c.29,1.07.61,2.13.87,3.21-.47-1-.89-2-1.33-3L598.56,207c-.82-2.06-1.57-4.14-2.32-6.23s-1.45-4.18-2.1-6.3S592.83,190.27,592.29,188.12Z" opacity="0.2"/><path d="M578.14,267.7a38.43,38.43,0,0,0,5.62-1.94,29.19,29.19,0,0,0,5.13-2.85,20,20,0,0,0,4.25-4l.89-1.16.76-1.27c.13-.21.27-.41.39-.63l.3-.67c.2-.46.42-.91.64-1.36a15.16,15.16,0,0,1-2.35,5.56,17.18,17.18,0,0,1-4.31,4.32,22.71,22.71,0,0,1-5.42,2.76A20.94,20.94,0,0,1,578.14,267.7Z" opacity="0.2"/><path d="M580.87,250.75s20.64,16.66,28.35,10.94c0,0,11.44-7.46,4.48-23.13L603.46,219l-14.39,15.06Z" fill="#f9b499"/><path d="M585,210.52s.27-8.15,6.14-9A1.63,1.63,0,0,1,593,202.9l1.42,11.7Z" fill="#f7a48b"/><path d="M457.2,342.39s-15.79,27-1.25,59.82c0,0,61.9,7.06,78.51-8.72,0,0,59,24.92,70.21,23.68,0,0,17-23.27,9.14-72.7Z" fill="#2f2e41"/><path d="M457.2,342.39s-15.79,27-1.25,59.82c0,0,61.9,7.06,78.51-8.72,0,0,59,24.92,70.21,23.68,0,0,17-23.27,9.14-72.7Z" opacity="0.2"/><path d="M553.34,578.92l7.95,12.79s-4,8.24.17,14.16a11.36,11.36,0,0,1,1.91,5.77c.3,4.72.45,12.23-1.39,15,0,0-3.11,7.61,4.15,9.33,0,0,37-2.76,25.93-14.86,0,0-5.88-12.1-6.22-23.86,0,0,2.42-7.26-5.53-12.1l-2.08-19.36Z" fill="#f9b499"/><path d="M509.14,592.74a14.17,14.17,0,0,1-.9,9.56,9.61,9.61,0,0,1-.88,1.52c-3.11,6.56-.69,18-.69,18,5.18,11.76-5.19,11.07-5.19,11.07-13.83-1.73-19.7-4.5-19.7-4.5-9-2.76-5.19-9.33-5.19-9.33,6.57-9.34,6.22-27,6.22-27a8,8,0,0,1-.24-1.7,5.28,5.28,0,0,1,3.7-5.21c2.18-1.94,3.85-9.82,4.66-14.36A55.38,55.38,0,0,0,511,581.86l-1.49,3.88A11.7,11.7,0,0,0,509.14,592.74Z" fill="#f9b499"/><path d="M511,654.2a5.4,5.4,0,0,1-5.64,3.57c-23.4-2.32-38.06-10.74-38.06-10.74-3.19-2-1.67-9.73.19-15.92a51.28,51.28,0,0,1,5.1-11.33c4-6.75,5.77-16.66,5.77-16.66,1-9.33,4.15-12.79,4.15-12.79l.1,0a8,8,0,0,0,.24,1.7s.35,17.63-6.22,27c0,0-3.8,6.57,5.19,9.33,0,0,5.87,2.77,19.7,4.5,0,0,10.37.69,5.19-11.07,0,0-2.42-11.41.69-18a9.61,9.61,0,0,0,.88-1.52,24.32,24.32,0,0,1,.5,6.7,55.42,55.42,0,0,0,2.08,18C514.09,640.93,512.54,649.66,511,654.2Z" fill="#0071f2"/><line x1="508.72" y1="289.18" x2="584.05" y2="289.18" fill="none" stroke="#000" stroke-miterlimit="10" stroke-width="0.25"/><rect x="234.49" y="332.92" width="607.99" height="12.13" fill="#a7a9ac"/><path d="M455.19,405.72h7.32a0,0,0,0,1,0,0V635.23a3.66,3.66,0,0,1-3.66,3.66h0a3.66,3.66,0,0,1-3.66-3.66V405.72A0,0,0,0,1,455.19,405.72Z" transform="translate(52.4 -41.74) rotate(5.52)" fill="#bcbec0"/><path d="M627.6,412.88c-39.43,12-177.35,1.15-177.35,1.15V402.88s138.35,9.42,176-.47Z" fill="#a7a9ac"/><path d="M548.85,222.52c-2.12,1.85-11.47,3.11-11.47,3.11.65,1.18,3.65,2.14,3.65,2.14,4.18-1,6.75-1.82,6.75-1.82,3.75-1.39,2.46.65,2.46.65-.21,2-7.93,2.89-7.93,2.89L542,231.1c6.11.1,7.82-1.18,7.82-1.18,2.36-1.29,2.15.53,2.15.53-1.29,2.9-10.18,3.43-10.18,3.43l-2,1.91a41.48,41.48,0,0,0,11.57-1.45c12.84-4.7,9.95-11.75,9.95-11.75s10.49-4.16,27.84-6.69c0,0,15.94-.33,20.17-6a1.36,1.36,0,0,0-.59-2.11c-.81-.32-2.06-.3-3.85,1-3.61,2.72-33.26,7.42-33.26,7.42s-8,1.81-13.2,4.88C558.39,221.14,552.17,219.63,548.85,222.52Z" fill="#2f2e41"/><path d="M529.46,226.6A7.17,7.17,0,0,1,527,231l-6.21,5.36,3.32,3.32s5.25-6.65,10.61-6.86l-2.9-7.18Z" fill="#0071f2"/><path d="M529.46,226.6A7.17,7.17,0,0,1,527,231l-6.21,5.36,3.32,3.32s5.25-6.65,10.61-6.86l-2.9-7.18Z" opacity="0.2"/><ellipse cx="521.9" cy="238.92" rx="2.09" ry="3" transform="translate(-37.02 369.55) rotate(-37.75)" fill="#0071f2"/><ellipse cx="521.9" cy="238.92" rx="2.09" ry="3" transform="translate(-37.02 369.55) rotate(-37.75)" opacity="0.3"/><path d="M512.55,174.33s6.17,13.2,19.7,19.13c0,0,16.3-6.86,27-36.5H534.1l-11.67,11.49Z" fill="#f7a48b"/><path d="M561.73,72S572.66,85,574,114.61c0,0,1.29,22.23,5.74,26.68a9.2,9.2,0,0,0-8.64,3.18,50.7,50.7,0,0,1-4.74,4.76c-1.55,1.31-3.55,3-5.89,4.84l3.31-29.69S569.14,100.53,561.73,72Z" fill="#2f2e41"/><path d="M561.73,72S572.66,85,574,114.61c0,0,1.29,22.23,5.74,26.68a9.2,9.2,0,0,0-8.64,3.18,50.7,50.7,0,0,1-4.74,4.76c-1.55,1.31-3.55,3-5.89,4.84l3.31-29.69S569.14,100.53,561.73,72Z" opacity="0.2"/><path d="M564.27,132.2c0,26.69-15.54,48.33-34.7,48.33a27.41,27.41,0,0,1-17-6.2,42.65,42.65,0,0,1-11.61-14.8,62.1,62.1,0,0,1-6.07-27.33c0-26.7,15.53-48.34,34.7-48.34S564.27,105.5,564.27,132.2Z" fill="#f9b499"/><ellipse cx="564.72" cy="118.56" rx="7.42" ry="15" fill="#f9b499"/><path d="M460.59,151.11s48.22,8.21,46.1-53.61c0,0,7,18.48-7,42.42,0,0,15.45-11.82,9.09-44.54,0,0,5.76,5.15,5.45,20,0,0,3.64-7-2.42-20,0,0,22.59,10.43,46.73,14a3.13,3.13,0,0,1,2.57,2.18c.93,3,2.6,9,2.6,12.87,0,0,7.53-12.28.49-46A20.64,20.64,0,0,0,560.38,70c-7.17-9.32-26.91-29.25-52.14-7.58,0,0-22.95-7-29.59,23.86C478.65,86.31,470.35,136.28,460.59,151.11Z" fill="#2f2e41"/><path d="M610.46,270.74c3.08,3.76,6.09,7.58,9.07,11.41s5.91,7.72,8.87,11.58l4.35,5.84a29.5,29.5,0,0,0,5.08,5A26.77,26.77,0,0,0,651,310.15a24.19,24.19,0,0,1-7.16-1.44,27.48,27.48,0,0,1-6.46-3.5,26.59,26.59,0,0,1-5.35-5.09l-4.42-5.8c-2.89-3.9-5.82-7.78-8.68-11.71S613.21,274.74,610.46,270.74Z" fill="#0071f2"/><path d="M610.46,270.74c3.08,3.76,6.09,7.58,9.07,11.41s5.91,7.72,8.87,11.58l4.35,5.84a29.5,29.5,0,0,0,5.08,5A26.77,26.77,0,0,0,651,310.15a24.19,24.19,0,0,1-7.16-1.44,27.48,27.48,0,0,1-6.46-3.5,26.59,26.59,0,0,1-5.35-5.09l-4.42-5.8c-2.89-3.9-5.82-7.78-8.68-11.71S613.21,274.74,610.46,270.74Z" opacity="0.2"/><path d="M627,248.15c6,3.21,11.94,6.5,17.87,9.82,3,1.64,5.92,3.34,8.88,5l4.43,2.52a29.91,29.91,0,0,1,4.24,3,25.79,25.79,0,0,1,8.95,18.1,28.17,28.17,0,0,1-1.49,10.15,33.85,33.85,0,0,1-4.81,9c3.73-5.65,6-12.37,5.53-19.09a25.21,25.21,0,0,0-8.83-17.39,28.91,28.91,0,0,0-4.06-2.91l-4.41-2.56c-2.94-1.71-5.89-3.39-8.81-5.14C638.67,255.18,632.82,251.71,627,248.15Z" fill="#0071f2"/><path d="M627,248.15c6,3.21,11.94,6.5,17.87,9.82,3,1.64,5.92,3.34,8.88,5l4.43,2.52a29.91,29.91,0,0,1,4.24,3,25.79,25.79,0,0,1,8.95,18.1,28.17,28.17,0,0,1-1.49,10.15,33.85,33.85,0,0,1-4.81,9c3.73-5.65,6-12.37,5.53-19.09a25.21,25.21,0,0,0-8.83-17.39,28.91,28.91,0,0,0-4.06-2.91l-4.41-2.56c-2.94-1.71-5.89-3.39-8.81-5.14C638.67,255.18,632.82,251.71,627,248.15Z" opacity="0.2"/><path d="M585.84,244.53s.25,6.22-5,6.22l-13.62-12.92a4.52,4.52,0,0,1-1.38-4.23,4.84,4.84,0,0,1,2.81-3.25s-1.74-5.47,3.23-7.21c0,0-2.24-3.48,2.49-6.72,0,0-1.82-3.79,1.29-6.4a6.06,6.06,0,0,1,6.29-.78l20.47,8.89a2.43,2.43,0,0,1,1.37,2.91c-.61,2.05-2,5-5.3,6.08a15.26,15.26,0,0,1-7.46,10.45S591.31,243.78,585.84,244.53Z" fill="#f9b499"/><path d="M568.68,230.35a57.49,57.49,0,0,1,6.42,4.59,54.23,54.23,0,0,1,5.78,5.37,54.08,54.08,0,0,1-6.41-4.59A53.38,53.38,0,0,1,568.68,230.35Z" fill="#f7a48b"/><path d="M571.91,223.14a71.22,71.22,0,0,1,7.47,5,69.59,69.59,0,0,1,6.86,5.77,69.55,69.55,0,0,1-7.46-5A71.12,71.12,0,0,1,571.91,223.14Z" fill="#f7a48b"/><path d="M574.4,216.42a91.06,91.06,0,0,1,17.41,7.71,91.06,91.06,0,0,1-17.41-7.71Z" fill="#f7a48b"/><path d="M577.46,209.08a6,6,0,0,1,2.79-.57,5.53,5.53,0,0,1,1.45.26l1.34.5c1.75.67,3.47,1.4,5.2,2.13a110.77,110.77,0,0,1,10.11,4.91,111.05,111.05,0,0,1-10.52-4c-1.72-.75-3.43-1.51-5.12-2.33a8.87,8.87,0,0,0-2.51-1A6.86,6.86,0,0,0,577.46,209.08Z" fill="#f7a48b"/><path d="M530.73,228.94a2.4,2.4,0,0,0-1.71-1.71c-1.44-.37-3.43-1.31-3.64-3.74,0-.32,0-3.64,4-2,0,0-.86-4.5,2.78-2.46,0,0,3.12-2.42,4.84.74a3,3,0,0,1,.28,2.09c-.31,1.27-.67,2.84,1.53,3,0,0,3.85-2.25,4.18,1.29,0,0,3.32,3.64.32,4.29,0,0,3.64,3.53-1.5,4.71,0,0-2.68,6-5,1.07,0,0-4.17.78-3.19-2.94a.85.85,0,0,0-.34-.92A6.24,6.24,0,0,1,530.73,228.94Z" fill="#0071f2"/><path d="M530.73,228.94a2.4,2.4,0,0,0-1.71-1.71c-1.44-.37-3.43-1.31-3.64-3.74,0-.32,0-3.64,4-2,0,0-.86-4.5,2.78-2.46,0,0,3.12-2.42,4.84.74a3,3,0,0,1,.28,2.09c-.31,1.27-.67,2.84,1.53,3,0,0,3.85-2.25,4.18,1.29,0,0,3.32,3.64.32,4.29,0,0,3.64,3.53-1.5,4.71,0,0-2.68,6-5,1.07,0,0-4.17.78-3.19-2.94a.85.85,0,0,0-.34-.92A6.24,6.24,0,0,1,530.73,228.94Z" fill="#fff" opacity="0.4"/><path d="M493.8,283.06l-6-6.69,19.11-.09a1.51,1.51,0,0,1,1.41,2.08C506.47,282.48,495.19,283,493.8,283.06Z" fill="none" stroke="#000" stroke-miterlimit="10" stroke-width="0.25"/><path d="M585.46,279l-4,31.09a4.14,4.14,0,0,1-4.11,3.62H553.68a4.15,4.15,0,0,1-4.07-3.33l-1.77-8.86a1,1,0,0,0-1-.79h0a1,1,0,0,0-1,.83l-1.28,8.62a3.85,3.85,0,0,1-3.82,3.3H486.86a3.85,3.85,0,0,1-3.78-3.11L476.85,279Z" fill="#2f2e41"/><path d="M573.42,264.15l12.69,8.11a4,4,0,0,1,1.84,3.12l.35,5.53H475.67v-5.86a2.21,2.21,0,0,1,1-1.87l14.08-8.8Z" fill="#0071f2"/><path d="M573.42,264.15l12.69,8.11a4,4,0,0,1,1.84,3.12l.35,5.53H475.67v-5.86a2.21,2.21,0,0,1,1-1.87l14.08-8.8Z" fill="#fff" opacity="0.4"/><path d="M511.3,291.59a10.73,10.73,0,0,1-.16,2.55c-1.06,5.29-6.43,5.59-6.43,5.59-1.36,10.07-21.9,7.56-21.9,7.56-7.94,8.33-18.8,7.94-18.8,7.94l-22.76-3.46-.05,0c-.67-.44-8-5.52-1.94-17.27,0,0,2.33-4.33,8.65-4l4.86.73,10.91-12.56a6.33,6.33,0,0,1,4.75-2.19l18.26-.95,20.28.73a1.47,1.47,0,0,1,1.41,1.86c-1.41,4.37-13.16,4.91-14.58,5h-.14v1.36l1.39,0,17.7.31a2,2,0,0,1,1.91,2.15A5.17,5.17,0,0,1,511.3,291.59Z" fill="#f9b499"/><path d="M469.44,284.41c4-.39,8.07-.48,12.11-.49s8.07.1,12.11.5c-4,.39-8.07.48-12.11.5S473.48,284.81,469.44,284.41Z" fill="#f7a48b"/><path d="M470.41,292.55c3.41-.2,6.81-.3,10.22-.38s6.82-.1,10.22-.11,6.82,0,10.23.11l5.11.14c1.7.08,3.41.13,5.11.25-1.7.11-3.41.16-5.11.24l-5.11.14c-3.41.09-6.82.1-10.23.11s-6.81,0-10.22-.11S473.82,292.76,470.41,292.55Z" fill="#f7a48b"/><path d="M504.71,299.73c-2.6.43-5.21.75-7.82,1.06s-5.22.55-7.83.79-5.24.43-7.86.56l-3.94.2c-1.32,0-2.63.1-3.95.1,1.3-.23,2.61-.39,3.91-.59l3.91-.47c2.61-.32,5.22-.56,7.84-.8s5.23-.42,7.86-.56S502.08,299.75,504.71,299.73Z" fill="#f7a48b"/><path d="M452.77,291.2a20.64,20.64,0,0,1-2.94,3.74,19.52,19.52,0,0,1-3.65,3,22.67,22.67,0,0,1,6.59-6.78Z" fill="#f7a48b"/><polygon points="581.92 273.36 571.3 265.8 492.19 266.51 481.81 273.36 581.92 273.36" opacity="0.2"/><rect x="545.39" y="264.61" width="1" height="9.45" transform="translate(-55.85 177.41) rotate(-17.58)" fill="#0071f2"/><g opacity="0.4"><rect x="545.39" y="264.61" width="1" height="9.45" transform="translate(-55.85 177.41) rotate(-17.58)" fill="#fff"/></g><path d="M491.82,273.5s-.85-3.19,4.26-2.34c0,0-1.28-4.26,3.83-1.92,0,0,4.47-4,4.89,1.92v2.34Z" fill="#2f2e41"/><path d="M506.88,273.24s-.5-.79,1.22-.79c0,0-.57-.85.78-.85,0,0,.86.28.22.92,0,0,1.64-.57,1.5.86Z" fill="#2f2e41"/><path d="M517.06,273.27s-.49-.87,1.22-.87c0,0-.57-.86.79-.86,0,0,1.06.13.42.77,0,0,1.44-.41,1.29,1Z" fill="#fff"/><path d="M522.28,273.38s0-1.93,3.78-1.11c0,0-.43-2.07,2.5-2.5,0,0,2.47-.6,3,2.4,0,0,7.38-1.44,8.24,1.2Z" fill="#fff"/><path d="M611.09,398.57a61,61,0,0,1-6.18,25.37L530.07,579.35a7.4,7.4,0,0,1-6.73,4.28,43.45,43.45,0,0,1-12.3-1.77,55.38,55.38,0,0,1-20.11-11.07c-1-.85-1.84-1.62-2.52-2.28a4.92,4.92,0,0,1-1.28-5l47.75-155.07c16.2-53.59,52.76-42,52.76-42C607.27,370,611.31,385.59,611.09,398.57Z" fill="#2f2e41"/><path d="M539.36,581,460.05,415.35A46.13,46.13,0,0,1,457,407c-3.12-12.16-7.86-41.88,18.08-48.77,0,0,32.4-11.22,52.76,34.89L581,563.71a5.12,5.12,0,0,1-1,4.91,42.38,42.38,0,0,1-37.47,14.62A4,4,0,0,1,539.36,581Z" fill="#2f2e41"/><path d="M504.7,507c2.76,5.19,4.6,9.8,7.24,15.05s5.21,10.54,7.82,15.81,5.11,10.58,7.61,15.9l3.73,8c1.22,2.68,2.46,5.35,3.64,8-1.39-2.59-2.72-5.22-4.08-7.82l-4-7.87c-2.64-5.25-5.21-10.54-7.82-15.81s-5.11-10.58-7.61-15.91S507.09,512.32,504.7,507Z" fill="#2f2e41"/><path d="M504.7,507c2.76,5.19,4.6,9.8,7.24,15.05s5.21,10.54,7.82,15.81,5.11,10.58,7.61,15.9l3.73,8c1.22,2.68,2.46,5.35,3.64,8-1.39-2.59-2.72-5.22-4.08-7.82l-4-7.87c-2.64-5.25-5.21-10.54-7.82-15.81s-5.11-10.58-7.61-15.91S507.09,512.32,504.7,507Z" opacity="0.2"/><path d="M534,412.27c2.59,7.83,5.08,15.69,7.55,23.56l7.3,23.63L556,483.17,559.42,495,562.78,507,559,495.19l-3.72-11.8-7.3-23.64-7.07-23.7C538.54,428.14,536.23,420.22,534,412.27Z" fill="#2f2e41"/><path d="M534,412.27c2.59,7.83,5.08,15.69,7.55,23.56l7.3,23.63L556,483.17,559.42,495,562.78,507,559,495.19l-3.72-11.8-7.3-23.64-7.07-23.7C538.54,428.14,536.23,420.22,534,412.27Z" opacity="0.2"/><g id="afa84a18-66ff-42a1-8b93-f96b06e378f3" data-name="freepik--Plant--inject-201"><path d="M264.93,568.62a334.26,334.26,0,0,1,.55-35.39,450.52,450.52,0,0,1,11.09-72.12c3.09-13.36,6.9-26.47,10.87-39.59.12-.39.75-.27.63.14-12.27,46.2-22.34,93.89-21.64,141.91.19,13.45,1.76,26.65,3,40,0,.36-.56.49-.63.13A200.82,200.82,0,0,1,264.93,568.62Z" fill="#0071f2"/><path d="M288.09,421.66s18.6,47.18,14.44,58.27-12.75,13.46-12.75,13.46,11.38,16.24,3.42,31.46-25.63,14.52-26.77,31.79C266.35,556.64,265.37,484.42,288.09,421.66Z" fill="#0071f2"/><path d="M268.37,526.82a.36.36,0,0,1,0-.25,432.35,432.35,0,0,1,18.09-95c0-.09.18,0,.15,0q-5.57,20.76-9.8,41.7a20.6,20.6,0,0,1,8.88-4.94s.09.08,0,.09a23.7,23.7,0,0,0-9.16,6.12c-.55,2.74-1.07,5.47-1.51,8.22,4.16-4.65,9.92-6.95,15.67-9.14m0,.12c-6,2.46-12.05,5.59-16,10.78q-2.16,11.73-3.74,23.56a22.44,22.44,0,0,1,11.14-6.35c.13,0,.21.17.07.2a23.34,23.34,0,0,0-11.24,7.2h0q-.56,4.17-1.06,8.34a28.19,28.19,0,0,1,7.71-4.64c.07,0,.12.09,0,.12a26.46,26.46,0,0,0-7.78,5.14h-.11c-.3,2.63-.62,5.29-.89,7.93a37.82,37.82,0,0,1,15.77-11.25c.12,0,.2.14.08.18a41.36,41.36,0,0,0-15.55,12,.31.31,0,0,1-.39.13q-.6,6.1-1.05,12.2c-.45,6.11-.11,0-.09,0,.21-4.11.49-8.29.84-12.45Z" fill="#2f2e41"/><path d="M283.31,463.68a23.27,23.27,0,0,1,11.17-3.48c.09,0,.09.12,0,.14a44.35,44.35,0,0,0-11,3.61.15.15,0,0,1-.2-.06A.15.15,0,0,1,283.31,463.68Z" fill="#2f2e41"/><path d="M281.05,513.64a23.12,23.12,0,0,1,8.38-2.87.08.08,0,0,1,.07.08.07.07,0,0,1-.07.07,31.56,31.56,0,0,0-8.29,2.91C281,513.89,280.94,513.7,281.05,513.64Z" fill="#2f2e41"/><path d="M224.78,484.85a127,127,0,0,1,20.12,20.28,77.46,77.46,0,0,1,13.18,26.64,191.52,191.52,0,0,1,6.72,61.8A148.74,148.74,0,0,1,259,627.65a.33.33,0,0,1-.44.17.33.33,0,0,1-.19-.34,193.17,193.17,0,0,0,4.11-59.93c-1.81-19.7-5.26-41.24-16.46-57.89-6.12-9.05-14-16.51-21.81-24.12C223.78,485.07,224.39,484.5,224.78,484.85Z" fill="#0071f2"/><path d="M263.1,579.44a116.23,116.23,0,0,0-14.17-21.1c-8.59-10-15.92-17.12-16.67-23.33s10.06-10,10.06-10-13,1.34-16-4.31-2.54-37-2.54-37,22.13,18.36,31.18,42.55S263.1,579.44,263.1,579.44Z" fill="#0071f2"/><path d="M231.17,492.35c9,10.37,18.25,21.38,23.11,34.47a127.94,127.94,0,0,1,4.17,13.83h0c.23.93.47,1.88.68,2.83a.2.2,0,0,1,0,.15A266.13,266.13,0,0,1,263.65,573s-.09.07-.09,0c-.65-5-1.4-9.94-2.29-14.92h-.13a20.5,20.5,0,0,0-6-2c-.14,0-.11-.26,0-.24a22.06,22.06,0,0,1,6,1.51c-.8-4.52-1.71-9-2.78-13.45A65.5,65.5,0,0,0,244.65,541m0-.08a53.31,53.31,0,0,1,13.56,2.16c-.19-.76-.39-1.51-.57-2.28a68.59,68.59,0,0,0-9-2.24v-.09a45.21,45.21,0,0,1,8.93,1.74c-1-3.84-2.09-7.65-3.36-11.38A66.51,66.51,0,0,0,250.4,520a55.07,55.07,0,0,0-7.38-1.89V518a20,20,0,0,1,6.93,1.21,67,67,0,0,0-3.46-6h0c-5.16-1.51-10.39-3-15.82-2.4a.09.09,0,0,1,0-.12s0,0,0,0c5.2-1,10.19.18,15.2,1.5-.5-.78-1-1.5-1.51-2.32a35,35,0,0,0-9.68-2.24s-.07-.11,0-.11a25.38,25.38,0,0,1,9,1.51c-3.94-5.7-8.34-11.1-12.71-16.45-.21-.24-.06-.37.15-.12Z" fill="#2f2e41"/><path d="M229.87,513.64a20.18,20.18,0,0,1,4.66.18c.18,0,.15.33,0,.33-1.51-.08-3-.3-4.61-.33a.09.09,0,0,1-.11-.07A.08.08,0,0,1,229.87,513.64Z" fill="#2f2e41"/><path d="M244.47,545.12a21.14,21.14,0,0,1,7.08,2v.1c-2.34-.74-4.72-1.14-7.08-1.72a.18.18,0,1,1,0-.36Z" fill="#2f2e41"/><path d="M250.27,535a15.28,15.28,0,0,1,3,.51c.11,0,0,.18,0,.18a16.08,16.08,0,0,1-3-.37.16.16,0,0,1-.11-.21A.2.2,0,0,1,250.27,535Z" fill="#2f2e41"/><path d="M322.91,507.76a106.37,106.37,0,0,0-20.5,12.57,65.16,65.16,0,0,0-16.13,19.11,161,161,0,0,0-17.95,49.2,125,125,0,0,0-2.1,29,.27.27,0,1,0,.54,0,162.94,162.94,0,0,1,8.76-49.88c5.41-15.73,12.56-32.66,25.1-44.07,6.81-6.21,14.77-10.66,22.61-15.32A.36.36,0,1,0,322.91,507.76Z" fill="#0071f2"/><path d="M272.58,577.36a97.21,97.21,0,0,1,15.84-14.42c9-6.41,16.46-10.79,18.33-15.72S300.52,537,300.52,537s10.36,3.74,14-.24,9.49-29.71,9.49-29.71-21.78,10.55-34.12,28.48S272.58,577.36,272.58,577.36Z" fill="#0071f2"/><path d="M273.19,572.12c9.05-22.54,22-43.46,41.34-58.45h0a102.08,102.08,0,0,0-13.86,13.56,24.09,24.09,0,0,1,12.47,1.22c.09,0,0,.15,0,.14a33.37,33.37,0,0,0-12.78-.74h-.14c-.66.77-1.31,1.51-2,2.37a38.52,38.52,0,0,1,6.62.13v.09a34.27,34.27,0,0,0-6.94.2A146.83,146.83,0,0,0,288.58,544a11.15,11.15,0,0,1,4.53-.18c.1,0,.1.18,0,.18a25.6,25.6,0,0,0-4.87.47c-.54.86-1.07,1.72-1.6,2.58a44.45,44.45,0,0,1,13.91-.18m0,.12a55.62,55.62,0,0,0-14.23.63c-.49.83-.95,1.69-1.43,2.52a29.52,29.52,0,0,1,8.29,0,.09.09,0,0,1,.05.12.1.1,0,0,1-.05,0,31.32,31.32,0,0,0-8.54.27c-2.08,3.64-4,7.33-5.9,11.05a7.92,7.92,0,0,1,3.62-.18v.11a15.85,15.85,0,0,0-3.87.6q-2.52,5.07-4.8,10.16c-.15.3-.68.15-.5-.15Z" fill="#2f2e41"/><path d="M288.89,552.52a17.41,17.41,0,0,1,6.67.08m0,.1a52.07,52.07,0,0,0-6.61,0,.12.12,0,0,1-.08-.15l0,0Z" fill="#2f2e41"/><path d="M305.8,524.4a11.67,11.67,0,0,1,3-.17.1.1,0,0,1,.06.14.09.09,0,0,1-.06.06c-1,0-2,.15-3,.22a.14.14,0,0,1-.09-.17A.14.14,0,0,1,305.8,524.4Z" fill="#2f2e41"/><polygon points="242.72 666.24 294.21 666.24 286.87 605.04 284.98 589.35 251.94 589.35 250.06 605.04 242.72 666.24" fill="#2f2e41"/><polygon points="250.06 605.04 286.87 605.04 284.98 589.35 251.94 589.35 250.06 605.04" opacity="0.2"/><rect x="247.21" y="583.91" width="42.51" height="13.29" fill="#2f2e41"/></g></svg>