<svg width="12" height="13" viewBox="0 0 12 13" fill="none" xmlns="http://www.w3.org/2000/svg">
<path d="M10.5883 4.95238H7.42857V1.52936C7.42857 0.688381 6.77657 0 6 0C5.22343 0 4.57143 0.688381 4.57143 1.52936V4.95238H1.41171C0.635429 4.95238 0 5.65871 0 6.5C0 7.34129 0.635429 8.04762 1.41171 8.04762H4.57143V11.4706C4.57143 12.3116 5.22343 13 6 13C6.77657 13 7.42857 12.3116 7.42857 11.4706V8.04762H10.5883C11.3646 8.04762 12 7.34129 12 6.5C12 5.65871 11.3646 4.95238 10.5883 4.95238Z" fill="white"/>
</svg>
