<svg width="13" height="12" viewBox="0 0 13 12" fill="none" xmlns="http://www.w3.org/2000/svg">
<path d="M9.83431 8.43486C9.74305 8.35717 9.65686 8.28379 9.61519 8.21096C9.61189 8.20509 9.60828 8.19914 9.60317 8.19092C9.44372 7.94297 9.38387 7.32418 9.34814 6.95459C9.3428 6.89906 9.33766 6.84598 9.33251 6.7963C9.33198 6.79126 9.33138 6.78629 9.33033 6.7787C9.24839 6.22198 9.04494 5.41916 8.54097 4.75631C8.19227 4.29768 7.75908 3.98796 7.25168 3.83404C7.19942 3.47643 6.88229 3.20055 6.50004 3.20055C6.1178 3.20055 5.80058 3.4765 5.7484 3.83412C5.24104 3.98792 4.80781 4.29764 4.45912 4.75635C3.95514 5.41909 3.75166 6.22194 3.66975 6.77866L3.66915 6.78312C3.66851 6.7879 3.66795 6.79257 3.66765 6.79601C3.66246 6.84598 3.65732 6.89895 3.65198 6.95444C3.61621 7.32422 3.55636 7.94312 3.39545 8.19326C3.39259 8.19782 3.38992 8.20239 3.38587 8.20925C3.34326 8.28376 3.25707 8.35721 3.16589 8.43493C2.94163 8.62586 2.47504 9.02327 2.85946 9.71686C2.93381 9.8511 3.07752 9.93448 3.23442 9.93448H9.7657C9.92248 9.93448 10.0661 9.85113 10.1406 9.7169C10.525 9.02342 10.0586 8.62597 9.83431 8.43486Z" fill="black" fill-opacity="0.5"/>
<path d="M7.2418 10.6275H5.73092C5.66886 10.6275 5.61051 10.6539 5.5708 10.6998C5.49633 10.786 5.51718 10.9009 5.52962 10.9696L5.5306 10.9751C5.6128 11.4329 6.02007 11.7652 6.49902 11.7652C6.98684 11.7652 7.40542 11.4117 7.47256 10.9434L7.47402 10.9358C7.48233 10.8932 7.50171 10.7937 7.42935 10.7087C7.40347 10.6784 7.34471 10.6275 7.2418 10.6275Z" fill="black" fill-opacity="0.5"/>
<path d="M3.81836 0.459747C3.76809 0.161269 3.47849 -0.041233 3.17112 0.00783188C2.32187 0.142943 1.53758 0.560322 0.962672 1.18301C0.385696 1.80808 0.0531561 2.58151 0.00104531 3.41974C-0.0177401 3.72161 0.218919 3.98113 0.529592 3.99935C0.541164 4.00004 0.552661 4.00037 0.564082 4.00037C0.859803 4.00037 1.10803 3.77641 1.12607 3.48574C1.1627 2.89682 1.39631 2.35342 1.80167 1.91431C2.21145 1.47043 2.74796 1.18491 3.35319 1.08861C3.66045 1.03973 3.86867 0.758188 3.81836 0.459747Z" fill="black" fill-opacity="0.5"/>
<path d="M3.1234 4.2497C3.1429 3.93607 3.26733 3.64669 3.48317 3.41283C3.70142 3.17645 3.98715 3.0244 4.30947 2.9731C4.61661 2.92422 4.82487 2.64268 4.77456 2.34421C4.72429 2.04577 4.43473 1.84323 4.12733 1.89229C3.55693 1.98301 3.03018 2.26331 2.6441 2.68153C2.26212 3.09529 2.03279 3.62873 1.9983 4.18363C1.97951 4.4855 2.21617 4.74502 2.52685 4.76324C2.53842 4.76393 2.54988 4.76426 2.56134 4.76426C2.85706 4.7643 3.10532 4.54033 3.1234 4.2497Z" fill="black" fill-opacity="0.5"/>
<path d="M12.9989 3.41925C12.9468 2.58102 12.6143 1.80759 12.0373 1.18249C11.4624 0.5598 10.6781 0.142457 9.82886 0.00734618C9.52183 -0.0417917 9.2319 0.160783 9.18163 0.459261C9.13132 0.757702 9.33954 1.03928 9.64672 1.08816C10.2519 1.1845 10.7885 1.46998 11.1982 1.91383C11.6036 2.35297 11.8373 2.89637 11.8738 3.48529C11.8919 3.77596 12.1401 3.99992 12.4359 3.99992C12.4473 3.99992 12.4588 3.99956 12.4704 3.9989C12.7811 3.98065 13.0177 3.72109 12.9989 3.41925Z" fill="black" fill-opacity="0.5"/>
<path d="M10.3559 2.68152C9.96981 2.26334 9.44303 1.98304 8.87262 1.89232C8.56533 1.84326 8.2757 2.04576 8.22539 2.34424C8.17508 2.64272 8.38334 2.92429 8.69048 2.97314C9.01284 3.02443 9.2986 3.17648 9.51681 3.41286C9.7327 3.64672 9.85709 3.93611 9.87656 4.2497C9.89459 4.54036 10.1428 4.76433 10.4386 4.76433C10.45 4.76433 10.4615 4.764 10.473 4.76335C10.7837 4.74513 11.0204 4.48568 11.0016 4.18377C10.9672 3.62883 10.7379 3.09536 10.3559 2.68152Z" fill="black" fill-opacity="0.5"/>
</svg>
