<svg width="10" height="13" viewBox="0 0 10 13" fill="none" xmlns="http://www.w3.org/2000/svg">
<path d="M8.85216 3.85789C9.06433 3.95996 9.15526 4.21766 9.05438 4.43233L8.92409 4.70971L2.33319 1.54273L2.46348 1.26535C2.56436 1.05022 2.81951 0.958675 3.03168 1.06075L8.85216 3.85789Z" fill="#D07178" fill-opacity="0.7"/>
<path d="M6.79512 4.70193L6.24139 11.425C6.21108 11.7948 5.89984 12.0845 5.53295 12.0845H2.20606C1.83962 12.0845 1.52837 11.7948 1.49806 11.425L0.944336 4.70193H6.79512Z" fill="#D07178" fill-opacity="0.7"/>
<path d="M9.24028 3.03079C9.90304 3.34936 10.1862 4.1545 9.87137 4.82506L9.54746 5.51577C9.46964 5.681 9.30769 5.77758 9.13849 5.77758C9.07335 5.77758 9.0073 5.76339 8.94442 5.73318L7.66867 5.11984L7.14299 11.501C7.07378 12.3413 6.36669 13 5.53293 13H2.20604C1.37273 13 0.665643 12.3413 0.596427 11.501L0.00153128 4.2822C-0.00887374 4.15496 0.0341034 4.02862 0.119606 3.93433C0.205108 3.84004 0.325896 3.78649 0.452566 3.78649H4.89415L1.5365 2.17302C1.42838 2.12129 1.34468 2.02746 1.30442 1.91303C1.26416 1.79906 1.27049 1.67318 1.32206 1.56333L1.64643 0.872625C1.96129 0.201603 2.7566 -0.0849314 3.41981 0.233644L4.6865 0.842415L4.75255 0.70281C4.89144 0.406205 5.13663 0.181921 5.44245 0.0716098C5.74827 -0.0382437 6.07806 -0.0213079 6.37121 0.119671L7.46283 0.643763C8.06768 0.934875 8.32645 1.66952 8.03918 2.28195L7.97313 2.42202L9.24028 3.03079ZM9.05435 4.43234C9.15523 4.21766 9.0643 3.95997 8.85213 3.85789L3.03165 1.06075C2.81948 0.958677 2.56433 1.05022 2.46345 1.26535L2.33316 1.54273L8.92406 4.70972L9.05435 4.43234ZM7.22171 1.88923C7.295 1.73269 7.22895 1.54502 7.07423 1.47087L5.98306 0.946318C5.90841 0.910616 5.82427 0.906039 5.74601 0.934417C5.66774 0.962339 5.60531 1.01955 5.56957 1.09554L5.50398 1.23514L7.15611 2.02929L7.22171 1.88923ZM6.24137 11.425L6.7951 4.70193H0.944316L1.49804 11.425C1.52835 11.7948 1.8396 12.0845 2.20604 12.0845H5.53293C5.89982 12.0845 6.21106 11.7948 6.24137 11.425Z" fill="black" fill-opacity="0.7"/>
</svg>
