<svg width="6" height="7" viewBox="0 0 6 7" fill="none" xmlns="http://www.w3.org/2000/svg">
<path fill-rule="evenodd" clip-rule="evenodd" d="M3.00038 4.65052L4.94236 6.83363C5.13718 7.05433 5.26394 7.05659 5.46232 6.83363L5.85195 6.39552C6.04283 6.181 6.05577 6.04018 5.85195 5.81104L3.79596 3.50009L5.85214 1.18913C6.0447 0.971936 6.04845 0.825353 5.85214 0.604448L5.4625 0.166551C5.26037 -0.0607358 5.13549 -0.0502361 4.94255 0.166551L3.00038 2.34966L1.0584 0.166757C0.865455 -0.0500303 0.740577 -0.0605299 0.538447 0.166757L0.148813 0.604654C-0.0476919 0.825559 -0.0441294 0.972142 0.148813 1.18934L2.2048 3.50009L0.148813 5.81104C-0.0550046 6.04018 -0.0441294 6.181 0.148813 6.39552L0.53826 6.83363C0.734952 7.05659 0.861705 7.05433 1.05821 6.83363L3.00038 4.65052Z" fill="black" fill-opacity="0.5"/>
</svg>
