<svg width="11" height="9" viewBox="0 0 11 9" fill="none" xmlns="http://www.w3.org/2000/svg">
<path d="M0 0.857143C0 0.384 0.398222 0 0.888889 0H10.1111C10.6018 0 11 0.384 11 0.857143C11 1.33029 10.6018 1.71429 10.1111 1.71429H0.888889C0.398222 1.71429 0 1.33029 0 0.857143ZM10.1111 3.64286H0.888889C0.398222 3.64286 0 4.02686 0 4.5C0 4.97314 0.398222 5.35714 0.888889 5.35714H10.1111C10.6018 5.35714 11 4.97314 11 4.5C11 4.02686 10.6022 3.64286 10.1111 3.64286ZM10.1111 7.28571H0.888889C0.398222 7.28571 0 7.66971 0 8.14286C0 8.616 0.398222 9 0.888889 9H10.1111C10.6018 9 11 8.616 11 8.14286C11 7.66971 10.6022 7.28571 10.1111 7.28571Z" fill="black" fill-opacity="0.5"/>
</svg>
