<svg width="9" height="12" viewBox="0 0 9 12" fill="none" xmlns="http://www.w3.org/2000/svg">
<path d="M0.538777 11.9042C1.51323 11.539 2.50431 10.9551 3.43553 10.3042C5.24143 9.03714 7.06729 7.78993 8.81332 6.46571L8.81997 6.46074C9.06276 6.27689 9.05943 5.98124 8.81332 5.79988C8.38762 5.48683 7.95527 5.17379 7.51627 4.8682C7.25353 4.65951 6.99412 4.45081 6.73138 4.2446C5.05519 2.93529 3.35239 1.64585 1.54981 0.443365C1.03764 0.100509 0.525473 -0.118124 0.349207 0.0682108C0.186244 0.237155 0.389116 0.602371 0.864703 0.992433C1.71943 1.69057 2.57416 2.39864 3.47877 3.06448C4.87227 4.09305 6.30236 5.09429 7.71581 6.10547C5.07514 7.77006 2.72714 9.72037 0.219502 11.5166C0.0997734 11.6011 0 11.7999 0 11.8868C0 12.0533 0.246108 12.016 0.538777 11.9042Z" fill="#F1F3FB"/>
</svg>
