<svg width="6" height="10" viewBox="0 0 6 10" fill="none" xmlns="http://www.w3.org/2000/svg">
<path d="M5.8125 4.82758C5.709 4.82758 5.625 4.90465 5.625 5V6.03448C5.625 7.36551 4.4475 8.44827 3 8.44827C1.5525 8.44827 0.375 7.36551 0.375 6.03448V5C0.375 4.90465 0.291 4.82758 0.1875 4.82758C0.084 4.82758 0 4.90465 0 5V6.03448C0 7.49741 1.24575 8.69465 2.8125 8.78431V9.65517H1.875C1.7715 9.65517 1.6875 9.73224 1.6875 9.82758C1.6875 9.92293 1.7715 10 1.875 10H4.125C4.2285 10 4.3125 9.92293 4.3125 9.82758C4.3125 9.73224 4.2285 9.65517 4.125 9.65517H3.1875V8.78431C4.75425 8.69465 6 7.49724 6 6.03448V5C6 4.90465 5.916 4.82758 5.8125 4.82758Z" fill="#EBE1E1"/>
<path d="M3 7.93103C4.13719 7.93103 5.0625 7.08017 5.0625 6.03448V1.89655C5.0625 0.850862 4.13719 0 3 0C1.86281 0 0.9375 0.850862 0.9375 1.89655V6.03448C0.9375 7.08017 1.86281 7.93103 3 7.93103Z" fill="#EBE1E1"/>
</svg>
