<svg width="10" height="9" viewBox="0 0 10 9" fill="none" xmlns="http://www.w3.org/2000/svg">
<path d="M9.89279 6.82555C9.52054 6.19212 8.22787 5.50529 8.17096 5.47526C8.00486 5.39016 7.83153 5.3451 7.66932 5.3451C7.42814 5.3451 7.23071 5.44455 7.11113 5.62544C6.92204 5.82902 6.68754 6.06697 6.63062 6.10385C6.19016 6.37284 5.84535 6.3423 5.46383 5.99889L3.33454 4.08208C2.95543 3.74084 2.92058 3.42663 3.21737 3.03232C3.2589 2.98076 3.52325 2.7695 3.74942 2.59913C3.89365 2.52187 3.99264 2.40706 4.03602 2.26623C4.09367 2.07884 4.05122 1.8584 3.91515 1.64365C3.88308 1.59425 3.11968 0.430518 2.41634 0.0956151C2.28509 0.0330398 2.13715 0 1.98885 0C1.74452 0 1.51464 0.0857699 1.34187 0.241124L0.871368 0.664467C0.127245 1.33411 -0.142115 2.09319 0.070333 2.92052C0.247558 3.61001 0.764032 4.34373 1.60566 5.10114L4.3317 7.55493C5.39691 8.51375 6.41243 9 7.35009 9C7.35009 9 7.35009 9 7.35028 9C8.0399 9 8.6828 8.73618 9.26064 8.21606L9.73095 7.79271C10.0168 7.53557 10.0817 7.14677 9.89279 6.82555Z" fill="black" fill-opacity="0.5"/>
</svg>
