<svg width="8" height="12" viewBox="0 0 8 12" fill="none" xmlns="http://www.w3.org/2000/svg">
<path d="M3.99969 6.75057C5.19511 6.75057 6.16471 6.02347 6.16471 5.12597V1.62478C6.16471 0.727222 5.19511 0 3.99969 0C2.80426 0 1.83521 0.727222 1.83521 1.62478V5.12597C1.83521 6.02347 2.8043 6.75057 3.99969 6.75057Z" fill="#FF4F5A"/>
<path d="M8 3.43703C8 3.14533 7.6836 2.90732 7.29389 2.90732C6.90422 2.90732 6.58811 3.14533 6.58811 3.43703C6.58811 3.54524 6.63162 3.64612 6.70577 3.73045V5.23494C6.70577 6.35577 5.49208 7.26626 3.99965 7.26626C2.50792 7.26626 1.29411 6.35574 1.29411 5.23494V3.73045C1.368 3.64612 1.41176 3.54528 1.41176 3.43703C1.41176 3.14533 1.09566 2.90732 0.706029 2.90732C0.315732 2.90732 0 3.14533 0 3.43703C0 3.54524 0.0433432 3.64612 0.117616 3.73045V5.23494C0.117616 6.69243 1.54915 7.90334 3.41136 8.11666V10.1949H2.09389V11.078H5.90582V10.1949H4.58793V8.11666C6.45073 7.90334 7.88226 6.69243 7.88226 5.23494V3.73045C7.95662 3.64612 8 3.54524 8 3.43703Z" fill="#FF4F5A"/>
</svg>
